<svg version="1" xmlns="http://www.w3.org/2000/svg" width="682.667" height="682.667" viewBox="0 0 512.000000 512.000000"><path d="M254.4 42.1c-1.5 5.7-2.2 8.7-1.7 7.1.8-2.3 2.1-1.2 2.8 2.5.6 3.2.9 3.5 1.5 1.8 1.2-2.9 1.2-3.7-.1-2.9-.8.4-.9-.3-.6-2.2.4-1.6.3-4.6-.1-6.8l-.7-3.8-1.1 4.3zM254 54.3c0 .9-.4 1.7-1 1.7-.5 0-1 .4-1 1 0 .5.4 1 .9 1 1.2 0 2.5-3.9 1.7-4.7-.3-.4-.6.1-.6 1zM256.2 58c0 1.4.2 1.9.5 1.2.2-.6.2-1.8 0-2.5-.3-.6-.5-.1-.5 1.3zM251.9 65.6c-.5 1.5-.7 2.9-.4 3.2.3.3.5.1.5-.4 0-.6.9-2 2-3.2 1.7-1.8 1.8-2.2.5-2.2-.8 0-2 1.2-2.6 2.6zM258.1 75c0 1.4.3 3.2.9 4 1.5 2.4 1.8.7.4-3-1.1-3.1-1.3-3.2-1.3-1zM247.1 78.6c0 1.1.3 1.4.6.6.3-.7.2-1.6-.1-1.9-.3-.4-.6.2-.5 1.3zM239.1 84.6c0 1.1.3 1.4.6.6.3-.7.2-1.6-.1-1.9-.3-.4-.6.2-.5 1.3zM245.2 86c0 1.4.2 1.9.5 1.2.2-.6.2-1.8 0-2.5-.3-.6-.5-.1-.5 1.3zM236.3 90c-.6 1.7-.7 3-.2 3 .9 0 2.4-4.8 1.7-5.5-.2-.2-.9.9-1.5 2.5zM242.6 93.9c-.4.7-.5 1.5-.2 1.8.9.9 1.9-.4 1.4-1.8-.4-1.1-.6-1.1-1.2 0zM232.7 97.5c-1 2.1-1.6 3.9-1.4 4.2.8.7 3.8-4.8 3.5-6.4-.2-1-1-.2-2.1 2.2zM239.2 100.5c0 1.6.2 2.2.5 1.2.2-.9.2-2.3 0-3-.3-.6-.5.1-.5 1.8zM230.5 105c.3.5.8 1 1.1 1 .2 0 .4-.5.4-1 0-.6-.5-1-1.1-1-.5 0-.7.4-.4 1zM237 106.4c0 1.4-.5 2.8-1.1 3.1-.6.4-.8 1.4-.4 2.2.3.9-.1 2.4-1 3.3-1.4 1.5-1.4 1.8 0 3 .9.8 1.9.9 2.4.4 1.3-1.4 2.2-13.2 1.1-13.9-.6-.3-1 .5-1 1.9zM227.3 107.5c-.8 2.2.6 3.3 1.7 1.5 1.3-2 1.2-3 0-3-.6 0-1.3.7-1.7 1.5zM225 114c-4.1 4.4-4.3 4.8-2.4 6.7 1.7 1.7 1.8 1.7 1.1-.1-.5-1.3-.1-2.6 1.4-4.2 1.2-1.2 2-2.6 1.8-3.1-.2-.5-1.1-.2-1.9.7zM248 124c0 3.6-.2 4-2.5 4-2.2 0-2.5.4-2.5 4v4h-11v-5.5c0-4.1-.4-5.5-1.4-5.5-2 0-2.5 2.2-.9 3.8.8.8 1.4 3.1 1.3 5.1 0 2 .3 6.9.6 10.8.5 6.3.4 7.3-1 7.3-1.3 0-1.6-1.4-1.7-8.3-.1-4.5 0-9.2.1-10.5.1-1.2-.2-2.2-.7-2.2-1.2 0-7.5 11.8-6.9 12.8.3.5-.4 1.6-1.5 2.5-1 .9-1.9 2.4-1.9 3.2 0 .8-.4 1.5-1 1.5-.5 0-1 .5-1 1.1 0 .5-1.4 3.8-3.2 7.2-10.2 20-18.8 38.1-18.8 39.7 0 .6-.4 1-1 1-.5 0-1 1.1-1 2.4 0 1.4-.4 2.8-1 3.1-.5.3-1 1.3-1 2.1s-.9 3.3-1.9 5.7c-2 4.2-9 25.7-10.9 33.2-.6 2.2-1.5 5.9-2.1 8.1-2.8 10.7-4.3 25.3-4.7 46.4-.3 12.4-.9 23.8-1.4 25.5-.5 1.6-1.2 5.2-1.5 8-.3 2.7-.9 7-1.5 9.5-.5 2.5-.9 6.6-1 9.1-.1 11.2-2.7 14.2-4.5 5.2-.5-2.8-1.3-5.5-1.8-5.9-.4-.4-.7-2-.7-3.5s-.4-3.9-1-5.3c-1.7-4.6-4-27.2-4-39.3.2-29.2 5.2-53.3 17.5-83.3 3.7-9.1 9.2-21 11-24 2.3-3.8 9.5-19 9.5-20.1 0-1.6-1.1-1-4.1 2.3-2.4 2.4-3.2 2.8-4.2 1.9-.9-1-.8-1.5.6-2.5 1.1-.9 1.5-2 1-3.2-.6-1.7-.5-1.7 1-.5 2.2 1.7 3.1.9 2.2-1.8-.9-3-2.2-2.6-4.1 1.1-1 1.8-2.4 3.8-3.3 4.5-2.1 1.5-.4 4.7 2.8 5.1 2.3.4 2.8 1.7 1 2.8-.6.3-1.5 0-2-.7-.6-1.1-1.3-.9-3 .9-2.1 2.3-2.1 2.4-.2 3.9 1.6 1.3 1.8 2 .9 3.9-1.5 3.1-3 3.1-2.4-.1.4-2 .1-2.5-1.4-2.5-1 0-2.1.7-2.4 1.5-.4.8-1 1.3-1.4 1-1-.6-2.1 2.1-1.3 2.9 1.4 1.3 3.3.5 3.3-1.4 0-1.1.5-2 1-2 .6 0 1 .6 1 1.4 0 .8.3 2.3.7 3.3.3 1 .2 1.5-.2 1.1-.5-.5-1.4.1-2.2 1.2-2 2.8-3 2.5-4.9-1.5-.9-1.9-2-3.3-2.4-3-1 .6-6 9.4-6 10.6 0 .5.6.9 1.4.9.8 0 1.7-1.5 2-3.5.4-1.9 1.2-3.5 1.7-3.5 1.7 0 3.8 2.6 4.4 5.6.5 2.2.4 2.5-.4 1.4-.6-.8-1.1-1.1-1.2-.5 0 .5-.4.1-.8-1-.7-1.8-.9-1.7-2.2.9-1.9 3.9-4.6 5.6-5.9 3.6-.7-1.2-1.2-1.2-2.9.4-2.1 1.9-2.8 4.6-1.2 4.6.5 0 1.2-.8 1.5-1.7.5-1.3.9-1.4 1.9-.4.9 1 .9 1.4-.3 2.1-4 2.3-5.1 3.6-4.4 5.3.4 1 1.3 1.6 2 1.3 2.6-1 2.3 1.1-.6 4.3-1.7 1.8-3.5 2.9-4 2.6-.6-.4-1.3.7-1.6 2.5-.7 3.5-2.2 4.8-3 2.7-.7-1.8 3.4-8.7 5.2-8.7 1.7 0 1.8-2.6.2-4.4-1-1.1-2 0-5.1 5.3-2.2 3.6-5.3 9.3-6.9 12.6-1.7 3.3-3.4 6.1-3.9 6.3-.5.2-.9.9-.9 1.6 0 .6-1.6 4.8-3.5 9.3-3.8 9.2-9.1 26.2-10.6 34.4-.5 3-1.7 11.6-2.6 19.2-1.4 11.9-1.5 15.4-.4 25 .7 6.2 1.7 12.5 2.1 14.2.5 1.6 1.6 6.1 2.5 10 .9 3.8 2.8 9.4 4.1 12.3 1.3 2.9 2.4 5.7 2.4 6.3 0 2.3 9.5 20.7 14.3 27.9 2.8 4.1 8.5 11 12.6 15.3 7.5 7.8 20.9 18.7 23 18.7.6 0 1.1.4 1.1 1 0 .5.6 1 1.4 1 .8 0 1.6.4 1.8.8.6 1.6 16.7 9.2 25.4 12.1 16.3 5.4 23.5 6.4 44.8 5.9 10.5-.3 20.2-.9 21.6-1.5 1.4-.6 5.4-1.6 9-2.3 3.6-.6 7-1.5 7.5-1.9.6-.4 3.3-1.4 6-2.1 4.4-1.1 9.9-3.5 14.5-6.1.8-.5 3.5-1.9 6-3.1 2.5-1.2 4.7-2.6 4.8-3 .2-.4.8-.8 1.3-.8 1.3 0 18.7-13 23.7-17.8.7-.6 1.7-1.2 2.1-1.2.4 0 1.3-1.1 2.1-2.4.7-1.3 2.1-2.7 3.2-2.9 1.5-.4 1.8-.1 1.3 1.6-.6 2-.5 2.1.8.4.8-.9 1.8-1.7 2.3-1.7.5 0 3.4-3.5 6.4-7.8 3-4.2 5.8-7.9 6.2-8 .5-.2.8-1.2.8-2.2 0-1 .4-2 .8-2.2 3-1.1 12.3-26.7 15.4-42.2 2.6-12.8 2.7-42 .2-55.5-2-11.3-6.3-27.9-8.1-31.4-.7-1.5-1.1-2.7-.7-2.7.3 0 0-1-.9-2.3-.8-1.2-1.8-3.7-2.1-5.5-.4-1.7-1.2-3.2-1.7-3.2s-.9-1.1-.9-2.4c0-1.3-.3-2.6-.7-2.8-1.1-.4-7.3-13-7.3-14.6 0-.6-.4-1.2-.9-1.2s-2.2-2.1-3.7-4.8c-1.5-2.6-3.1-4.9-3.4-5.2-.4-.3-1.8-2.8-3.1-5.5-1.2-2.8-2.6-5.2-3-5.5-.3-.3-.9-1.5-1.3-2.8-.8-2.3-2.1-2.9-3.1-1.2-.3.5 0 1 .8 1s1.7.9 2 2c.8 3.1-.3 6-2.4 6-2.2 0-2.4 1.1-.7 2.8 1.8 1.8 2.6 1.5 3-1 .5-3.7 3.3-3.4 3.5.4.7 9.5 1.6 13.8 2.9 13.8.8 0 1.4.6 1.4 1.4 0 .8.6 1.7 1.3 1.9 1 .4 1 .6 0 .6-1.8.1-1.6 4.1.2 4.1 1 0 1.5 1 1.5 2.7 0 2.6-.1 2.6-1.5.7-1.5-1.8-1.6-1.8-1.4.6.1 1.4-.1 3.3-.5 4.2-.5 1-.6 2.3-.3 3 .3.7.6.3.6-1 .1-1.9.6-2.2 4.2-2.2h4.2l-.6 8-.5 8h2.9c2.7 0 2.9.3 2.8 3.7l-.1 3.8-.9-3c-.6-2.3-.7-1.9-.4 1.9.3 2.7.5 5.9.5 7.2 0 1.4.6 2.4 1.4 2.4 1 0 1.6 1.9 2.2 6.2.4 3.5.7 7.1.5 8-.1 1 .2 1.8.7 1.8 1.4 0 2.7 15.1 1.3 15.9-.6.4-1.2 4.2-1.3 8.4-.3 6.6-.6 7.7-2 7.7s-1.8.9-1.8 3.9c0 2.4-.9 5.1-2.5 7.5-1.4 2-2.4 4-2.2 4.5.1.4-1.3 2-3.1 3.6-2.3 1.9-3.1 3.3-2.7 4.6.4 1.2.1 2.1-.9 2.5-.9.4-1.6 1.8-1.6 3.3 0 1.9-1.3 4.2-4 7-2.2 2.3-4 5.1-4 6.2 0 3.1-2.3 1.7-3.3-2-.4-1.8-1-3.1-1.2-2.9-.2.2.1 2.2.7 4.5.9 3.7.8 4.4-1 6.3-1.1 1.2-2.5 1.9-3 1.6-1.6-1-4 3.8-3.5 6.7.3 1.5.1 2.7-.5 2.7s-1.8.7-2.6 1.6c-1.1 1.1-1.6 1.2-1.6.3 0-.7-.6-.4-1.4.6-1.2 1.6-1.6 1.7-3 .6-.9-.7-1.6-2.1-1.6-3.1 0-.9-.3-2-.7-2.4-.5-.4-.9-1.2-.9-1.7-.1-.5-.2-1.1-.3-1.4 0-.3-1.4.8-3.1 2.5-1.6 1.6-3.7 3-4.7 3s-3.6 1.1-5.8 2.5c-2.3 1.4-5.5 2.4-7.5 2.4-2.8 0-3.1-.2-1.5-.9 1.8-.7 1.9-.8.3-1.5-1.8-.7-2.6-6.5-1-6.5.5 0 1.7-1.8 2.7-4 1-2.2 2.2-4 2.7-4 .4 0 .8-1 .8-2.3 0-1.8-.2-1.9-1-.7-.7 1.1-1 .7-1-1.8 0-1.8-.7-4.9-1.5-6.9-1.7-4.1-2-8.3-.5-8.3.6 0 1 .9 1 2s.5 2 1.1 2c.8 0 .9-1.1.5-3.1-.3-1.9.2-6.6 1.5-11.6 3.1-13.2 3.9-22.9 3.8-46.8-.2-32.9-2.8-53.2-10-78.5-1.1-4.1-2.4-9.1-2.9-11-.4-1.9-1.5-5.5-2.4-8-1-2.5-2.2-6.5-2.8-9-.5-2.5-1.4-4.9-1.9-5.5-.5-.5-.9-1.7-.9-2.7 0-1-.4-2.6-.9-3.6-.5-.9-1.9-4.6-3.2-8.2-1.2-3.6-2.9-7.3-3.7-8.2-.8-.9-1.1-2.5-.7-3.6.3-1.1.1-2.3-.5-2.7-.5-.3-1-1.5-1-2.6s-.6-3-1.2-4.2c-1.2-2.1-1.3-2.1-2 1.3-.5 2.4-.5 1.8-.2-2 .4-5.9 0-7.3-3-8.3-1.3-.5-1.7-1.5-1.4-3.6.3-2.3.1-2.7-1.4-2.3-1 .2-1.8.9-1.8 1.5s-2.3-1.3-5.1-4.1c-4.2-4.2-5.8-5.2-8.5-5.2-3.3 0-3.4-.1-3.4-4v-4h-8v4zm-24 24c0 .5-.4 1-1 1-.5 0-1-.5-1-1 0-.6.5-1 1-1 .6 0 1 .4 1 1zm-61 69c0 .5-.4 1-1 1-.5 0-1-.5-1-1 0-.6.5-1 1-1 .6 0 1 .4 1 1zm-3.3 4.2c-.3.8-.6.5-.6-.6-.1-1.1.2-1.7.5-1.3.3.3.4 1.2.1 1.9zm201.2 6.8c0 .8-.5.4-1.3-1-.7-1.4-1-2.9-.8-3.4.6-1.1 2 2 2.1 4.4zM156 232.4c0 .3-.4.8-1 1.1-.5.3-1 .1-1-.4 0-.6.5-1.1 1-1.1.6 0 1 .2 1 .4zM371.5 247c.3.5.1 1-.4 1-.6 0-1.1-.7-1.1-1.5s-.4-1.5-1-1.5c-.5 0-1-1-1-2.3 0-2.1.1-2 1.4.5.8 1.6 1.8 3.2 2.1 3.8zm-229.9 1.7c-1 1-1.9-.5-1-1.8.6-1.1.8-1.1 1.2 0 .2.7.1 1.5-.2 1.8zm3.1 9.5c-.3.8-.6.5-.6-.6-.1-1.1.2-1.7.5-1.3.3.3.4 1.2.1 1.9zm-9.7 6.5c0 .5-.5 1.5-1 2.3-.8 1.2-1 1.1-1-.8 0-1.2.5-2.2 1-2.2.6 0 1 .3 1 .7zm245 6.4c0 .5-.4.9-1 .9-.5 0-1-.7-1-1.6 0-.8.5-1.2 1-.9.6.3 1 1 1 1.6zm-253 24c0 .5-.4.9-1 .9-.5 0-1-.7-1-1.6 0-.8.5-1.2 1-.9.6.3 1 1 1 1.6zm-1.3 8.1c-.3.8-.6.5-.6-.6-.1-1.1.2-1.7.5-1.3.3.3.4 1.2.1 1.9zm86.6 16c-.2.5.4.8 1.4.8 1 .1 3.6 2.3 5.8 5 2.2 2.7 4.2 4.5 4.3 4 .2-.6 2.1-1 4.3-1h3.9v11h4c3.6 0 4 .2 4 2.5 0 1.5.6 2.5 1.4 2.5 1 0 1.6 2.2 2.1 7.7.7 7.7 2.1 12.3 3.7 12.3.4 0 .8.9.8 2s.7 2 1.5 2c1.2 0 1.5 1.6 1.5 8s-.3 8-1.5 8c-1.1 0-1.5 1.1-1.5 4s-.4 4-1.5 4c-.8 0-1.5.9-1.5 2 0 2.9-4.6 6.8-8.9 7.6-3 .6-16.8.9-23.3.5-2.8-.2-2.1-1.9 1-2.4 1.9-.3 1.4-.4-1.5-.6-3.1-.1-4.3-.5-4.3-1.6s-1.1-1.5-4-1.5c-3.3 0-4-.3-4-2 0-1.5-.7-2-2.9-2-1.7 0-3.2-.4-3.6-.9-.7-1.3-6.4-4.1-8.2-4.1-.7 0-1.3-.7-1.3-1.5s-.4-1.5-.9-1.5c-1.1 0-6.4-5.1-8.6-8.3-.8-1.2-1.5-3.4-1.5-4.9 0-1.6-.4-2.8-1-2.8s-1-3.3-1-8c0-6.3-.3-8-1.4-8-.9 0-1.6 1.3-1.9 3.2-.2 1.8-.2-.3.1-4.7.4-6.9.9-8.3 3.1-10.6 3.6-3.7 5.1-5.7 5-6.6-.5-3.2.3-5.3 2.1-5.3 1 0 2.3-.6 2.7-1.4.8-1.5 6.6-5.2 9.6-6.2.9-.4 1.7-1.2 1.7-1.9 0-1.5 13.8-3.2 16.6-2.1 1.5.6 1.5.4.4-1.1-.8-1-.2-.7 1.2.7s2.3 2.8 2.1 3.2zM175 327c0 .5-.4 1-1 1-.5 0-1-.5-1-1 0-.6.5-1 1-1 .6 0 1 .4 1 1zm201 7.5c0 .8-.4 1.5-1 1.5-.5 0-.7-.7-.4-1.5.4-.8.8-1.5 1-1.5.2 0 .4.7.4 1.5zm-248.3 19.7c-.3.8-.6.5-.6-.6-.1-1.1.2-1.7.5-1.3.3.3.4 1.2.1 1.9zm4.3 7.4c0 .8-.4 1.2-1 .9-.5-.3-1-1-1-1.6 0-.5.5-.9 1-.9.6 0 1 .7 1 1.6zm35.7.6c-.3.8-.6.5-.6-.6-.1-1.1.2-1.7.5-1.3.3.3.4 1.2.1 1.9zm-32.7 11c0 1.8-.2 2-.9.8-.6-.8-.7-1.8-.5-2.2.9-1.4 1.4-.9 1.4 1.4zm9.7 6c-.3.7-.5.2-.5-1.2s.2-1.9.5-1.3c.2.7.2 1.9 0 2.5zm198.9 4.5c-1 1-1.9-.5-1-1.8.6-1.1.8-1.1 1.2 0 .2.7.1 1.5-.2 1.8zM142 389.1c0 1.8-2.7-.8-3.3-3.3l-.6-2 2 2c1 1.2 1.9 2.6 1.9 3.3zm36.7-4.5c-.3.3-1.2.4-1.9.1-.8-.3-.5-.6.6-.6 1.1-.1 1.7.2 1.3.5zm5 6.6c-.3.8-.6.5-.6-.6-.1-1.1.2-1.7.5-1.3.3.3.4 1.2.1 1.9zm146.7.4c.8 2.1-.1 3.4-2.4 3.4-2.8 0-3.5-1.9-1.4-3.5 2.5-1.9 3.1-1.8 3.8.1zm-6.3 6.4c.6 0 .7.4.4 1-.3.5-1.5 1-2.6 1-1 0-1.9.5-1.9 1.1 0 .5-.5.7-1.2.3-.9-.6-.9-.9 0-1.2.7-.2 1.2-1.1 1.2-1.9 0-1 .6-1.3 1.6-.9.9.3 2 .6 2.5.6zm-167.3 3.7c-.4 2.2-2.2 2-2.6-.1-.2-1 .3-1.6 1.3-1.6s1.5.7 1.3 1.7zm42.9-1.1c-.3.3-1.2.4-1.9.1-.8-.3-.5-.6.6-.6 1.1-.1 1.7.2 1.3.5zM252 407c0 .5-.9 1-2 1s-2-.5-2-1c0-.6.9-1 2-1s2 .4 2 1zm61.5 0c.3.5.1 1-.4 1-.6 0-1.1-.5-1.1-1 0-.6.2-1 .4-1 .3 0 .8.4 1.1 1zm48.5 4.9c0 .6-.4 1.3-1 1.6-.5.3-1-.1-1-.9 0-.9.5-1.6 1-1.6.6 0 1 .4 1 .9zm-146.3 38.7c-.3.3-1.2.4-1.9.1-.8-.3-.5-.6.6-.6 1.1-.1 1.7.2 1.3.5zm44.6 6.1c-4.6.2-12 .2-16.5 0-4.6-.1-.9-.3 8.2-.3s12.8.2 8.3.3z"/><path d="M190 322c-1.3.8-1.2 1 .3 1 .9 0 1.7-.5 1.7-1 0-1.2-.1-1.2-2 0zM236 344.8c0 .4.5 1.3 1.2 2 1.8 1.8 2.8 1.5 2.8-.8 0-1.3-.7-2-2-2-1.1 0-2 .4-2 .8zM176 375c0 .5.5 1 1.1 1 .5 0 .7-.5.4-1-.3-.6-.8-1-1.1-1-.2 0-.4.4-.4 1zM219 124c0 1.1.5 2 1 2 .6 0 1-.9 1-2s-.4-2-1-2c-.5 0-1 .9-1 2zM216.7 130.9c-1.9 3.2-2.2 5.6-.7 4.6.6-.3 1-1.3 1-2.2 0-.9.7-2.5 1.7-3.5.9-1 1.2-1.8.7-1.8s-1.7 1.3-2.7 2.9zM274.1 129.6c0 1.1.3 1.4.6.6.3-.7.2-1.6-.1-1.9-.3-.4-.6.2-.5 1.3zM272.2 134c0 1.4.2 1.9.5 1.2.2-.6.2-1.8 0-2.5-.3-.6-.5-.1-.5 1.3zM210.4 138.6c-1.9 6.1.3 4.9 3.3-1.7.2-.4-.3-.9-1-1.2-.8-.3-1.7.8-2.3 2.9zM204.2 147.1c-.6 2.4-.7 3.8-.1 3.2 1.3-1.3 2.9-7.3 2-7.3-.5 0-1.3 1.9-1.9 4.1zM208.2 146.5c0 1.6.2 2.2.5 1.2.2-.9.2-2.3 0-3-.3-.6-.5.1-.5 1.8zM202.8 154.5c-1.9 2.6-2.3 4.5-.9 4.5.9 0 3.6-5.8 3-6.4-.2-.2-1.2.6-2.1 1.9zM314 156.5c0 .8.4 1.5 1 1.5.5 0 .7-.7.4-1.5-.4-.8-.8-1.5-1-1.5-.2 0-.4.7-.4 1.5zM197.6 156.8c.6.4 1.4 1.6 1.7 2.6.4 1 1 1.6 1.3 1.3.9-.8-1.5-4.7-2.9-4.7-.8 0-.9.3-.1.8zM194.5 159c-.3.5-.1 1 .4 1 .6 0 1.1-.5 1.1-1 0-.6-.2-1-.4-1-.3 0-.8.4-1.1 1zM195.6 163.7c-1.4 1.5-2.9 3.6-3.2 4.6-.5 1.7-.7 1.7-1.8.1-.7-.9-1.8-1.4-2.4-1-1.9 1.1-1.4 2.6.8 2.6 1.5 0 2 .7 2 2.9 0 1.7.5 3.3 1.1 3.6.7.5.8-.6.5-3.2-.4-2.8-.3-3.1.3-1.3l.8 2.5 1.3-2.8c.7-1.5 1.8-2.7 2.4-2.7.6 0 .4-.5-.4-1-1.3-.9-1.1-1.3.9-3.1 1.7-1.4 2.1-2.3 1.4-3-.7-.7-1.9-.2-3.7 1.8zm-.1 5.3c-.3.5-1 1-1.6 1-.5 0-.9-.5-.9-1 0-.6.7-1 1.6-1 .8 0 1.2.4.9 1z"/><path d="M190.6 164.5c-.3.8-.1 1.5.4 1.5.6 0 1-.7 1-1.5s-.2-1.5-.4-1.5-.6.7-1 1.5zM324 171.9c0 .5.5 1.3 1 1.6.6.3 1 .2 1-.4 0-.5-.4-1.3-1-1.6-.5-.3-1-.2-1 .4zM320 175c0 .5.5 1 1.1 1 .5 0 .7-.5.4-1-.3-.6-.8-1-1.1-1-.2 0-.4.4-.4 1zM323 176.9c0 1.7 1.8 2.1 2.4.6.3-.9 0-1.5-.9-1.5-.8 0-1.5.4-1.5.9zM330.1 179c0 1.6 2.2 5 3.3 5 1.1 0 .6-1.4-1.4-4-1.3-1.6-2-2-1.9-1zM327.1 186.6c0 1.1.3 1.4.6.6.3-.7.2-1.6-.1-1.9-.3-.4-.6.2-.5 1.3zM175 188.9c0 .5-.7.8-1.6.7-.9 0-1.9.5-2.1 1.1-.3.7 0 1.3.6 1.3s1.1-.4 1.1-1c0-.5.7-.7 1.5-.4.9.4 1.5 0 1.5-1 0-.9-.2-1.6-.5-1.6s-.5.4-.5.9zM337 189c0 .5.5 1 1 1 .6 0 1-.5 1-1 0-.6-.4-1-1-1-.5 0-1 .4-1 1zM335 192.9c0 1.3.2 1.3.9.3.6-1 1.1-.6 1.9 1.7.8 2.3 1.7 3.1 3.5 3.1 2 0 2.6.6 3.1 3.5.4 2 .2 4.4-.4 5.6-.7 1.1-.9 2.3-.7 2.6.3.2.8-.5 1.2-1.6.3-1.2 1.5-2.1 2.6-2.1 1 0 1.9-.4 1.9-1 0-1.5-4.9-8.2-7.1-9.8-1.1-.8-1.8-1.9-1.6-2.6.3-.6-.7-1.1-2.4-1.2-2-.1-2.9.4-2.9 1.5zM330 192.6c0 .9 3.3 6.7 4.8 8.2 1.7 1.9 1.5.8-.9-4.3-1.8-3.8-3.9-5.9-3.9-3.9zM338 208.7c0 .5 1.3 2.7 2.9 5.1 2.2 3.3 3 4 3.5 2.7.3-.9.2-1.4-.2-1.1-.5.3-1.6-1.3-2.6-3.4-1.5-3.5-3.6-5.4-3.6-3.3zM351.4 225.8c-.1 2.7 0 3.4.3 1.7.3-1.6.9-3.3 1.5-3.6.6-.4.7-1.2.4-1.8-1.4-2.2-2.1-1-2.2 3.7zM357.1 238.6c0 1.1.3 1.4.6.6.3-.7.2-1.6-.1-1.9-.3-.4-.6.2-.5 1.3zM365.1 254.6c0 1.1.3 1.4.6.6.3-.7.2-1.6-.1-1.9-.3-.4-.6.2-.5 1.3zM355.6 343.7c-1.4 5.2-1.7 8.3-.7 8.3.6 0 1.1-1.5 1.1-3.4s.5-3.8 1-4.1c1.3-.8 1.3-2.5.1-2.5-.5 0-1.2.8-1.5 1.7zM351.1 357.7c-.1.6-.4 2-.7 3-.5 1.7-.5 1.7.6 0 .6-1 .9-2.3.6-3-.3-.9-.5-.9-.5 0zM351.1 366.6c0 1.1.3 1.4.6.6.3-.7.2-1.6-.1-1.9-.3-.4-.6.2-.5 1.3zM344 375c-1.3.8-1.2 1 .3 1 .9 0 1.7-.5 1.7-1 0-1.2-.1-1.2-2 0z"/></svg>